<?xml version="1.0" encoding="UTF-8"?>
<svg id="Calque_1" data-name="Calque 1" xmlns="http://www.w3.org/2000/svg" xmlns:xlink="http://www.w3.org/1999/xlink" viewBox="0 0 976.03 267.18">
  <defs>
    <style>
      .cls-1, .cls-2 {
        font-family: Montserrat-SemiBold, Montserrat;
        font-size: 85.92px;
        font-weight: 600;
      }

      .cls-2, .cls-3, .cls-4 {
        fill: #294657;
      }

      .cls-3 {
        font-family: Outfit-ExtraLight, Outfit;
        font-size: 39.69px;
        font-weight: 200;
      }

      .cls-5 {
        fill: url(#Dégradé_sans_nom_41);
      }
    </style>
    <linearGradient id="Dégradé_sans_nom_41" data-name="Dégradé sans nom 41" x1="36.01" y1="121.77" x2="211.41" y2="121.77" gradientUnits="userSpaceOnUse">
      <stop offset="0" stop-color="#f5e7c6"/>
      <stop offset="1" stop-color="#c9b38c"/>
    </linearGradient>
  </defs>
  <g>
    <g>
      <text class="cls-1" transform="translate(287.57 124.82)"><tspan x="0" y="0">Cœur Nanterre</tspan></text>
      <text class="cls-2" transform="translate(287.57 124.82)"><tspan x="0" y="0">Cœur Nanterre</tspan></text>
    </g>
    <text class="cls-3" transform="translate(287.57 188.97)"><tspan x="0" y="0">PATRIMOTINE &amp; MODERNITÉ</tspan></text>
  </g>
  <g>
    <g>
      <rect class="cls-4" x="126.56" y="147" width="8.2" height="8.2"/>
      <rect class="cls-4" x="137.04" y="147" width="8.2" height="8.2"/>
      <rect class="cls-4" x="126.56" y="157.17" width="8.2" height="8.2"/>
      <rect class="cls-4" x="137.04" y="157.17" width="8.2" height="8.2"/>
    </g>
    <g id="UjvTOk">
      <path class="cls-5" d="M83.43,150.14l42.06-73.28,34.82,33.63,25.07-42.36c-9.68-10.05-23.84-16.93-37.57-19.33-58.14-10.16-104.59,47.79-81.31,102.34,18.95,44.42,74.6,58.2,111.87,30.58,5.38-3.99,12.94-3.14,17.6,1.67l8.15,8.42c-38,39.03-102.8,38.23-141.06-1.76-32.84-34.33-36.09-88.21-8.17-126.65,33.59-46.24,100.44-54,144.15-17.16,18.79,15.83,13.16,26.32,2.82,44.84-11.23,20.13-24.85,38.76-36.76,58.46l-33.91-32.44-13.73,23.58c-3.41,5.86-9.68,9.46-16.46,9.46h-17.58Z"/>
    </g>
    <g id="UjvTOk-2" data-name="UjvTOk">
      <path class="cls-4" d="M201.88,91.08c-11.23,20.13-24.85,38.76-36.76,58.47l-33.9-32.43-13.4,22.99c-3.62,6.22-10.28,10.04-17.48,10.04h-16.91l42.05-73.29,34.83,33.63,24.51-41.41,14.03-23.01c.06.06.13.1.19.16,18.78,15.83,13.16,26.32,2.82,44.84Z"/>
    </g>
  </g>
  <path class="cls-4" d="M247.41,55.72c1.55,23.37,1.83,47.78,1.93,71.24-.09,23.48-.37,47.86-1.93,71.24-1.56-23.37-1.84-47.77-1.93-71.24.1-23.48.38-47.86,1.93-71.24h0Z"/>
</svg>