<svg width="258" height="56" viewBox="0 0 258 56" fill="none" xmlns="http://www.w3.org/2000/svg">
<path d="M80.156 28.9238C78.9759 28.9238 77.877 28.732 76.8592 28.3485C75.8562 27.9502 74.9785 27.3971 74.2262 26.6891C73.4887 25.9663 72.9134 25.1181 72.5004 24.1446C72.0874 23.171 71.8809 22.109 71.8809 20.9585C71.8809 19.8079 72.0874 18.7459 72.5004 17.7723C72.9134 16.7988 73.4961 15.958 74.2484 15.25C75.0007 14.5272 75.8783 13.9741 76.8813 13.5906C77.8844 13.1923 78.9833 12.9932 80.1781 12.9932C81.4466 12.9932 82.6046 13.2144 83.6518 13.6569C84.6991 14.0847 85.5842 14.7264 86.3069 15.5819L84.4484 17.3298C83.8879 16.7251 83.261 16.2752 82.5677 15.9802C81.8744 15.6704 81.1221 15.5155 80.3108 15.5155C79.4996 15.5155 78.7547 15.6483 78.0761 15.9138C77.4124 16.1793 76.8297 16.5554 76.3282 17.0422C75.8414 17.529 75.4579 18.1042 75.1777 18.768C74.9121 19.4318 74.7794 20.1619 74.7794 20.9585C74.7794 21.755 74.9121 22.4851 75.1777 23.1489C75.4579 23.8127 75.8414 24.388 76.3282 24.8747C76.8297 25.3615 77.4124 25.7376 78.0761 26.0031C78.7547 26.2687 79.4996 26.4014 80.3108 26.4014C81.1221 26.4014 81.8744 26.2539 82.5677 25.9589C83.261 25.6491 83.8879 25.1845 84.4484 24.565L86.3069 26.335C85.5842 27.1758 84.6991 27.8175 83.6518 28.26C82.6046 28.7025 81.4393 28.9238 80.156 28.9238Z" fill="#294657"/>
<path d="M93.6539 28.8574C92.4444 28.8574 91.3676 28.5992 90.4236 28.083C89.4795 27.552 88.7346 26.8292 88.1889 25.9146C87.6431 25.0001 87.3702 23.9602 87.3702 22.7949C87.3702 21.6149 87.6431 20.5749 88.1889 19.6752C88.7346 18.7606 89.4795 18.0452 90.4236 17.529C91.3676 17.0127 92.4444 16.7546 93.6539 16.7546C94.8635 16.7546 95.9181 17.0127 96.8179 17.529C97.7177 18.0452 98.4184 18.7606 98.9199 19.6752C99.4214 20.5749 99.6722 21.6149 99.6722 22.7949C99.6722 23.9602 99.4214 25.0001 98.9199 25.9146C98.4184 26.8292 97.7177 27.552 96.8179 28.083C95.9181 28.5992 94.8635 28.8574 93.6539 28.8574ZM93.6539 26.4899C94.3325 26.4899 94.9372 26.3424 95.4682 26.0474C95.9993 25.7524 96.4123 25.3246 96.7073 24.7641C97.0171 24.2036 97.1719 23.5472 97.1719 22.7949C97.1719 22.0279 97.0171 21.3715 96.7073 20.8257C96.4123 20.2652 95.9993 19.8374 95.4682 19.5424C94.9372 19.2474 94.3325 19.0999 93.6539 19.0999C92.9902 19.0999 92.3928 19.2474 91.8617 19.5424C91.3455 19.8374 90.9325 20.2652 90.6227 20.8257C90.3129 21.3715 90.158 22.0279 90.158 22.7949C90.158 23.5472 90.3129 24.2036 90.6227 24.7641C90.9325 25.3246 91.3455 25.7524 91.8617 26.0474C92.3928 26.3424 92.9902 26.4899 93.6539 26.4899ZM103.721 28.8574C102.408 28.8574 101.273 28.5992 100.314 28.083C99.3698 27.552 98.6396 26.8292 98.1233 25.9146C97.6218 25.0001 97.3711 23.9602 97.3711 22.7949C97.3711 21.6149 97.6218 20.5749 98.1233 19.6752C98.6249 18.7606 99.3181 18.0452 100.203 17.529C101.088 17.0127 102.113 16.7546 103.279 16.7546C104.444 16.7546 105.476 17.0053 106.376 17.5068C107.276 18.0084 107.984 18.7164 108.5 19.6309C109.017 20.5454 109.275 21.6222 109.275 22.8613C109.275 22.9793 109.267 23.112 109.253 23.2595C109.253 23.4071 109.245 23.5472 109.231 23.6799H99.4509V21.8435H107.615L106.664 22.4188C106.679 21.7402 106.539 21.1428 106.244 20.6266C105.963 20.1103 105.565 19.7047 105.049 19.4097C104.547 19.1146 103.957 18.9671 103.279 18.9671C102.615 18.9671 102.025 19.1146 101.509 19.4097C101.007 19.7047 100.609 20.1177 100.314 20.6487C100.019 21.165 99.8713 21.7771 99.8713 22.4851V22.9277C99.8713 23.6357 100.034 24.2626 100.358 24.8084C100.683 25.3541 101.14 25.7745 101.73 26.0695C102.32 26.3645 103.006 26.512 103.788 26.512C104.437 26.512 105.027 26.4088 105.558 26.2023C106.089 25.9958 106.561 25.6713 106.974 25.2287L108.478 26.9324C107.932 27.552 107.254 28.0314 106.443 28.3706C105.631 28.6951 104.724 28.8574 103.721 28.8574Z" fill="#294657"/>
<path d="M116.918 28.8574C115.915 28.8574 115.03 28.673 114.263 28.3042C113.496 27.9207 112.898 27.3454 112.47 26.5784C112.043 25.7966 111.829 24.8157 111.829 23.6357V16.8873H114.594V23.2595C114.594 24.3216 114.83 25.1181 115.302 25.6491C115.789 26.1654 116.475 26.4235 117.36 26.4235C118.009 26.4235 118.57 26.2908 119.042 26.0253C119.529 25.7598 119.905 25.3615 120.17 24.8305C120.45 24.2995 120.591 23.6431 120.591 22.8613V16.8873H123.356V28.7025H120.723V25.5164L121.188 26.4899C120.79 27.2569 120.207 27.847 119.44 28.26C118.673 28.6582 117.832 28.8574 116.918 28.8574Z" fill="#294657"/>
<path d="M126.977 28.7025V16.8873H129.61V20.1398L129.301 19.1884C129.655 18.3919 130.208 17.7871 130.96 17.3741C131.727 16.9611 132.679 16.7546 133.814 16.7546V19.3875C133.696 19.358 133.586 19.3433 133.482 19.3433C133.379 19.3285 133.276 19.3212 133.173 19.3212C132.125 19.3212 131.292 19.6309 130.673 20.2504C130.053 20.8552 129.743 21.7624 129.743 22.9719V28.7025H126.977Z" fill="#294657"/>
<path d="M142.649 28.7025V13.2144H145.016L154.73 25.1402H153.557V13.2144H156.411V28.7025H154.044L144.331 16.7767H145.503V28.7025H142.649Z" fill="#294657"/>
<path d="M167.575 28.7025V26.3129L167.42 25.804V21.6222C167.42 20.811 167.177 20.1841 166.69 19.7415C166.203 19.2843 165.466 19.0556 164.478 19.0556C163.814 19.0556 163.157 19.1589 162.508 19.3654C161.874 19.5719 161.336 19.8595 160.893 20.2283L159.809 18.2149C160.443 17.7281 161.196 17.3667 162.066 17.1307C162.951 16.8799 163.866 16.7546 164.81 16.7546C166.521 16.7546 167.841 17.1676 168.77 17.9936C169.714 18.8049 170.186 20.0661 170.186 21.7771V28.7025H167.575ZM163.858 28.8574C162.973 28.8574 162.199 28.7099 161.535 28.4149C160.871 28.1051 160.355 27.6847 159.986 27.1537C159.632 26.6079 159.455 25.9958 159.455 25.3172C159.455 24.6535 159.61 24.0561 159.92 23.5251C160.244 22.994 160.768 22.5736 161.491 22.2639C162.213 21.9541 163.172 21.7992 164.367 21.7992H167.797V23.6357H164.566C163.622 23.6357 162.988 23.7906 162.663 24.1003C162.339 24.3953 162.177 24.7641 162.177 25.2066C162.177 25.7081 162.376 26.1064 162.774 26.4014C163.172 26.6964 163.725 26.8439 164.433 26.8439C165.112 26.8439 165.717 26.6891 166.248 26.3793C166.793 26.0695 167.184 25.6123 167.42 25.0075L167.885 26.6669C167.62 27.3602 167.14 27.8986 166.447 28.2821C165.768 28.6656 164.905 28.8574 163.858 28.8574Z" fill="#294657"/>
<path d="M180.44 16.7546C181.384 16.7546 182.225 16.9389 182.962 17.3077C183.714 17.6765 184.304 18.2444 184.732 19.0114C185.16 19.7637 185.374 20.7372 185.374 21.932V28.7025H182.608V22.286C182.608 21.2387 182.357 20.4569 181.856 19.9407C181.369 19.4244 180.683 19.1663 179.798 19.1663C179.149 19.1663 178.574 19.299 178.072 19.5645C177.571 19.83 177.18 20.2283 176.9 20.7593C176.634 21.2756 176.501 21.932 176.501 22.7285V28.7025H173.736V16.8873H176.369V20.0734L175.904 19.0999C176.317 18.3476 176.914 17.7723 177.696 17.3741C178.493 16.9611 179.407 16.7546 180.44 16.7546Z" fill="#294657"/>
<path d="M193.33 28.8574C192.032 28.8574 191.028 28.5255 190.32 27.8617C189.612 27.1832 189.258 26.1875 189.258 24.8747V14.2765H192.024V24.8084C192.024 25.3689 192.164 25.804 192.445 26.1138C192.74 26.4235 193.145 26.5784 193.661 26.5784C194.281 26.5784 194.797 26.4162 195.21 26.0917L195.985 28.0609C195.66 28.3264 195.262 28.5255 194.79 28.6582C194.318 28.791 193.831 28.8574 193.33 28.8574ZM187.311 19.1884V16.9758H195.188V19.1884H187.311Z" fill="#294657"/>
<path d="M203.424 28.8574C202.112 28.8574 200.961 28.5992 199.973 28.083C198.999 27.552 198.24 26.8292 197.694 25.9146C197.163 25.0001 196.897 23.9602 196.897 22.7949C196.897 21.6149 197.155 20.5749 197.672 19.6752C198.203 18.7606 198.926 18.0452 199.84 17.529C200.769 17.0127 201.824 16.7546 203.004 16.7546C204.155 16.7546 205.18 17.0053 206.08 17.5068C206.979 18.0084 207.687 18.7164 208.204 19.6309C208.72 20.5454 208.978 21.6222 208.978 22.8613C208.978 22.9793 208.971 23.112 208.956 23.2595C208.956 23.4071 208.949 23.5472 208.934 23.6799H199.088V21.8435H207.474L206.389 22.4188C206.404 21.7402 206.264 21.1428 205.969 20.6266C205.674 20.1103 205.268 19.7047 204.752 19.4097C204.25 19.1146 203.668 18.9671 203.004 18.9671C202.326 18.9671 201.728 19.1146 201.212 19.4097C200.71 19.7047 200.312 20.1177 200.017 20.6487C199.737 21.165 199.597 21.7771 199.597 22.4851V22.9277C199.597 23.6357 199.759 24.2626 200.083 24.8084C200.408 25.3541 200.865 25.7745 201.455 26.0695C202.045 26.3645 202.724 26.512 203.491 26.512C204.155 26.512 204.752 26.4088 205.283 26.2023C205.814 25.9958 206.286 25.6713 206.699 25.2287L208.182 26.9324C207.65 27.552 206.979 28.0314 206.168 28.3706C205.372 28.6951 204.457 28.8574 203.424 28.8574Z" fill="#294657"/>
<path d="M211.635 28.7025V16.8873H214.268V20.1398L213.958 19.1884C214.312 18.3919 214.865 17.7871 215.617 17.3741C216.384 16.9611 217.336 16.7546 218.472 16.7546V19.3875C218.354 19.358 218.243 19.3433 218.14 19.3433C218.036 19.3285 217.933 19.3212 217.83 19.3212C216.783 19.3212 215.949 19.6309 215.33 20.2504C214.71 20.8552 214.4 21.7624 214.4 22.9719V28.7025H211.635Z" fill="#294657"/>
<path d="M220.818 28.7025V16.8873H223.451V20.1398L223.141 19.1884C223.495 18.3919 224.048 17.7871 224.8 17.3741C225.567 16.9611 226.519 16.7546 227.655 16.7546V19.3875C227.537 19.358 227.426 19.3433 227.323 19.3433C227.22 19.3285 227.116 19.3212 227.013 19.3212C225.966 19.3212 225.132 19.6309 224.513 20.2504C223.893 20.8552 223.584 21.7624 223.584 22.9719V28.7025H220.818Z" fill="#294657"/>
<path d="M235.446 28.8574C234.134 28.8574 232.983 28.5992 231.995 28.083C231.021 27.552 230.262 26.8292 229.716 25.9146C229.185 25.0001 228.919 23.9602 228.919 22.7949C228.919 21.6149 229.177 20.5749 229.694 19.6752C230.225 18.7606 230.948 18.0452 231.862 17.529C232.791 17.0127 233.846 16.7546 235.026 16.7546C236.177 16.7546 237.202 17.0053 238.102 17.5068C239.001 18.0084 239.709 18.7164 240.226 19.6309C240.742 20.5454 241 21.6222 241 22.8613C241 22.9793 240.993 23.112 240.978 23.2595C240.978 23.4071 240.97 23.5472 240.956 23.6799H231.11V21.8435H239.495L238.411 22.4188C238.426 21.7402 238.286 21.1428 237.991 20.6266C237.696 20.1103 237.29 19.7047 236.774 19.4097C236.272 19.1146 235.69 18.9671 235.026 18.9671C234.347 18.9671 233.75 19.1146 233.234 19.4097C232.732 19.7047 232.334 20.1177 232.039 20.6487C231.759 21.165 231.619 21.7771 231.619 22.4851V22.9277C231.619 23.6357 231.781 24.2626 232.105 24.8084C232.43 25.3541 232.887 25.7745 233.477 26.0695C234.067 26.3645 234.746 26.512 235.513 26.512C236.177 26.512 236.774 26.4088 237.305 26.2023C237.836 25.9958 238.308 25.6713 238.721 25.2287L240.203 26.9324C239.672 27.552 239.001 28.0314 238.19 28.3706C237.393 28.6951 236.479 28.8574 235.446 28.8574Z" fill="#294657"/>
<path d="M72.185 42.7632V42.2829H74.3927C74.7129 42.2829 74.9957 42.2215 75.241 42.0989C75.4863 41.9694 75.6805 41.7889 75.8236 41.5572C75.9667 41.3187 76.0382 41.0393 76.0382 40.7191C76.0382 40.3988 75.9667 40.1229 75.8236 39.8912C75.6805 39.6527 75.4863 39.4721 75.241 39.3495C74.9957 39.22 74.7129 39.1553 74.3927 39.1553H72.185V38.6749H74.454C74.8628 38.6749 75.224 38.7601 75.5374 38.9304C75.8577 39.094 76.1098 39.329 76.2938 39.6357C76.4845 39.9423 76.5799 40.3034 76.5799 40.7191C76.5799 41.1347 76.4845 41.4959 76.2938 41.8025C76.1098 42.1023 75.8577 42.3374 75.5374 42.5077C75.224 42.6781 74.8628 42.7632 74.454 42.7632H72.185ZM71.8579 45.6455V38.6749H72.3996V45.6455H71.8579Z" fill="#294657"/>
<path d="M76.8668 45.6455L79.7081 38.6749H80.1374L82.9686 45.6455H82.3758L79.8104 39.2268H80.025L77.4391 45.6455H76.8668ZM78.1035 43.5911V43.1108H81.7319V43.5911H78.1035Z" fill="#294657"/>
<path d="M85.2608 45.6455V38.8691H85.7923V45.6455H85.2608ZM82.7056 39.1655V38.6749H88.3475V39.1655H82.7056Z" fill="#294657"/>
<path d="M90.0615 42.4464V41.9865H92.2181C92.7291 41.9865 93.1209 41.857 93.3934 41.5981C93.666 41.3391 93.8023 40.995 93.8023 40.5658C93.8023 40.1433 93.666 39.8026 93.3934 39.5437C93.1277 39.2848 92.7359 39.1553 92.2181 39.1553H90.0615V38.6749H92.1976C92.6473 38.6749 93.0323 38.7567 93.3526 38.9202C93.6728 39.0769 93.9181 39.2984 94.0885 39.5846C94.2588 39.8639 94.344 40.191 94.344 40.5658C94.344 40.9405 94.2588 41.271 94.0885 41.5572C93.9181 41.8366 93.6728 42.0546 93.3526 42.2113C93.0323 42.368 92.6473 42.4464 92.1976 42.4464H90.0615ZM89.7344 45.6455V38.6749H90.2761V45.6455H89.7344ZM94.1498 45.6455L91.4515 42.3238L91.9932 42.1807L94.855 45.6455H94.1498Z" fill="#294657"/>
<path d="M96.0825 45.6455V38.6749H96.6242V45.6455H96.0825Z" fill="#294657"/>
<path d="M98.5279 45.6455V38.6749H98.9163L101.983 43.7036H101.686L104.752 38.6749H105.141V45.6455H104.599V39.605L104.732 39.6357L102.034 44.0613H101.645L98.947 39.6357L99.0696 39.605V45.6455H98.5279Z" fill="#294657"/>
<path d="M110.159 45.7477C109.669 45.7477 109.212 45.6557 108.79 45.4718C108.374 45.2878 108.01 45.0323 107.696 44.7052C107.383 44.3713 107.137 43.9863 106.96 43.5503C106.79 43.1142 106.705 42.6474 106.705 42.15C106.705 41.6458 106.79 41.179 106.96 40.7497C107.131 40.3137 107.372 39.9321 107.686 39.605C107.999 39.2779 108.364 39.0258 108.779 38.8487C109.195 38.6647 109.648 38.5727 110.139 38.5727C110.629 38.5727 111.083 38.6647 111.498 38.8487C111.921 39.0258 112.285 39.2779 112.592 39.605C112.905 39.9321 113.151 40.3137 113.328 40.7497C113.505 41.1858 113.593 41.656 113.593 42.1602C113.593 42.6576 113.505 43.1244 113.328 43.5605C113.157 43.9966 112.916 44.3781 112.602 44.7052C112.289 45.0323 111.924 45.2878 111.508 45.4718C111.1 45.6557 110.65 45.7477 110.159 45.7477ZM110.139 45.2265C110.698 45.2265 111.192 45.0936 111.621 44.8279C112.057 44.5553 112.401 44.1874 112.653 43.724C112.905 43.2607 113.031 42.736 113.031 42.15C113.031 41.7139 112.956 41.3119 112.806 40.9439C112.663 40.5692 112.462 40.2455 112.203 39.973C111.945 39.6936 111.638 39.479 111.284 39.329C110.936 39.1723 110.554 39.094 110.139 39.094C109.587 39.094 109.093 39.2268 108.657 39.4926C108.228 39.7583 107.887 40.1229 107.635 40.5862C107.389 41.0427 107.267 41.564 107.267 42.15C107.267 42.5861 107.338 42.9915 107.481 43.3663C107.625 43.741 107.826 44.0681 108.084 44.3475C108.343 44.6268 108.647 44.8449 108.994 45.0016C109.348 45.1515 109.73 45.2265 110.139 45.2265Z" fill="#294657"/>
<path d="M116.582 45.6455V38.8691H117.114V45.6455H116.582ZM114.027 39.1655V38.6749H119.669V39.1655H114.027Z" fill="#294657"/>
<path d="M121.056 45.6455V38.6749H121.597V45.6455H121.056Z" fill="#294657"/>
<path d="M123.501 45.6455V38.6749H123.889L124.043 39.329V45.6455H123.501ZM128.325 45.6455L123.808 39.3904L123.889 38.6749L128.417 44.9198L128.325 45.6455ZM128.325 45.6455L128.172 45.0118V38.6749H128.714V45.6455H128.325Z" fill="#294657"/>
<path d="M130.618 45.6455V38.6749H131.159V45.6455H130.618ZM130.965 45.6455V45.1549H135.156V45.6455H130.965ZM130.965 42.3033V41.8332H134.839V42.3033H130.965ZM130.965 39.1655V38.6749H135.105V39.1655H130.965Z" fill="#294657"/>
<path d="M143.644 45.6455L140.251 42.15C139.958 41.857 139.743 41.5708 139.607 41.2914C139.471 41.0121 139.403 40.7157 139.403 40.4022C139.403 40.0411 139.481 39.7243 139.638 39.4517C139.801 39.1791 140.026 38.9645 140.312 38.8078C140.599 38.6511 140.926 38.5727 141.294 38.5727C141.553 38.5727 141.788 38.6102 141.999 38.6851C142.217 38.7601 142.411 38.8657 142.581 39.002C142.752 39.1314 142.895 39.2916 143.011 39.4824L142.633 39.8401C142.469 39.5948 142.278 39.4074 142.06 39.2779C141.842 39.1417 141.59 39.0735 141.304 39.0735C140.895 39.0735 140.565 39.1962 140.312 39.4415C140.06 39.6868 139.934 40.0138 139.934 40.4227C139.934 40.6884 139.992 40.9303 140.108 41.1484C140.224 41.3664 140.418 41.6151 140.691 41.8945L144.319 45.6455H143.644ZM140.905 45.7477C140.476 45.7477 140.094 45.6592 139.761 45.482C139.433 45.3048 139.175 45.0629 138.984 44.7563C138.8 44.4497 138.708 44.0954 138.708 43.6933C138.708 43.2641 138.824 42.8689 139.055 42.5077C139.287 42.1398 139.604 41.8604 140.006 41.6696L140.282 42.0069C139.968 42.1568 139.713 42.3851 139.515 42.6917C139.324 42.9915 139.229 43.3254 139.229 43.6933C139.229 44 139.301 44.2691 139.444 44.5008C139.594 44.7325 139.795 44.9164 140.047 45.0527C140.306 45.1822 140.599 45.2469 140.926 45.2469C141.3 45.2469 141.638 45.1617 141.938 44.9914C142.237 44.821 142.466 44.5928 142.622 44.3066L142.97 44.6848C142.84 44.896 142.667 45.0834 142.449 45.2469C142.237 45.4036 141.999 45.5263 141.733 45.6149C141.474 45.7034 141.198 45.7477 140.905 45.7477Z" fill="#294657"/>
<path d="M147.316 45.6455V38.6749H147.705L150.771 43.7036H150.475L153.541 38.6749H153.929V45.6455H153.388V39.605L153.52 39.6357L150.822 44.0613H150.434L147.735 39.6357L147.858 39.605V45.6455H147.316Z" fill="#294657"/>
<path d="M158.948 45.7477C158.457 45.7477 158.001 45.6557 157.578 45.4718C157.163 45.2878 156.798 45.0323 156.485 44.7052C156.171 44.3713 155.926 43.9863 155.749 43.5503C155.578 43.1142 155.493 42.6474 155.493 42.15C155.493 41.6458 155.578 41.179 155.749 40.7497C155.919 40.3137 156.161 39.9321 156.474 39.605C156.788 39.2779 157.152 39.0258 157.568 38.8487C157.984 38.6647 158.437 38.5727 158.927 38.5727C159.418 38.5727 159.871 38.6647 160.287 38.8487C160.709 39.0258 161.074 39.2779 161.38 39.605C161.694 39.9321 161.939 40.3137 162.116 40.7497C162.293 41.1858 162.382 41.656 162.382 42.1602C162.382 42.6576 162.293 43.1244 162.116 43.5605C161.946 43.9966 161.704 44.3781 161.391 44.7052C161.077 45.0323 160.713 45.2878 160.297 45.4718C159.888 45.6557 159.438 45.7477 158.948 45.7477ZM158.927 45.2265C159.486 45.2265 159.98 45.0936 160.409 44.8279C160.845 44.5553 161.19 44.1874 161.442 43.724C161.694 43.2607 161.82 42.736 161.82 42.15C161.82 41.7139 161.745 41.3119 161.595 40.9439C161.452 40.5692 161.251 40.2455 160.992 39.973C160.733 39.6936 160.426 39.479 160.072 39.329C159.725 39.1723 159.343 39.094 158.927 39.094C158.375 39.094 157.881 39.2268 157.445 39.4926C157.016 39.7583 156.675 40.1229 156.423 40.5862C156.178 41.0427 156.055 41.564 156.055 42.15C156.055 42.5861 156.127 42.9915 156.27 43.3663C156.413 43.741 156.614 44.0681 156.873 44.3475C157.132 44.6268 157.435 44.8449 157.783 45.0016C158.137 45.1515 158.519 45.2265 158.927 45.2265Z" fill="#294657"/>
<path d="M164.221 45.6455V45.1447H166.388C166.974 45.1447 167.489 45.0186 167.932 44.7665C168.381 44.5076 168.732 44.1533 168.984 43.7036C169.236 43.2539 169.363 42.736 169.363 42.15C169.363 41.5708 169.236 41.0564 168.984 40.6067C168.732 40.1569 168.381 39.806 167.932 39.5539C167.482 39.3018 166.967 39.1757 166.388 39.1757H164.252V38.6749H166.398C166.91 38.6749 167.38 38.7635 167.809 38.9407C168.238 39.111 168.61 39.3529 168.923 39.6663C169.243 39.973 169.489 40.3409 169.659 40.7702C169.836 41.1926 169.925 41.656 169.925 42.1602C169.925 42.6576 169.836 43.121 169.659 43.5503C169.489 43.9727 169.247 44.3407 168.933 44.6541C168.62 44.9675 168.248 45.2128 167.819 45.39C167.39 45.5604 166.923 45.6455 166.419 45.6455H164.221ZM163.935 45.6455V38.6749H164.477V45.6455H163.935Z" fill="#294657"/>
<path d="M171.491 45.6455V38.6749H172.033V45.6455H171.491ZM171.839 45.6455V45.1549H176.029V45.6455H171.839ZM171.839 42.3033V41.8332H175.712V42.3033H171.839ZM171.839 39.1655V38.6749H175.978V39.1655H171.839Z" fill="#294657"/>
<path d="M177.837 42.4464V41.9865H179.993C180.504 41.9865 180.896 41.857 181.169 41.5981C181.441 41.3391 181.578 40.995 181.578 40.5658C181.578 40.1433 181.441 39.8026 181.169 39.5437C180.903 39.2848 180.511 39.1553 179.993 39.1553H177.837V38.6749H179.973C180.423 38.6749 180.808 38.7567 181.128 38.9202C181.448 39.0769 181.694 39.2984 181.864 39.5846C182.034 39.8639 182.119 40.191 182.119 40.5658C182.119 40.9405 182.034 41.271 181.864 41.5572C181.694 41.8366 181.448 42.0546 181.128 42.2113C180.808 42.368 180.423 42.4464 179.973 42.4464H177.837ZM177.51 45.6455V38.6749H178.051V45.6455H177.51ZM181.925 45.6455L179.227 42.3238L179.769 42.1807L182.63 45.6455H181.925Z" fill="#294657"/>
<path d="M183.858 45.6455V38.6749H184.246L184.4 39.329V45.6455H183.858ZM188.682 45.6455L184.165 39.3904L184.246 38.6749L188.774 44.9198L188.682 45.6455ZM188.682 45.6455L188.529 45.0118V38.6749H189.071V45.6455H188.682Z" fill="#294657"/>
<path d="M190.975 45.6455V38.6749H191.516V45.6455H190.975Z" fill="#294657"/>
<path d="M195.464 45.6455V38.8691H195.996V45.6455H195.464ZM192.909 39.1655V38.6749H198.551V39.1655H192.909Z" fill="#294657"/>
<path d="M199.938 45.6455V38.6749H200.479V45.6455H199.938ZM200.285 45.6455V45.1549H204.476V45.6455H200.285ZM200.285 42.3033V41.8332H204.159V42.3033H200.285ZM200.285 39.1655V38.6749H204.425V39.1655H200.285ZM201.542 37.9084L201.318 37.6835L202.697 36.0788L203.116 36.5081L201.542 37.9084Z" fill="#294657"/>
<path d="M32.25 34.095H34.1739V36.0189H32.25V34.095ZM34.7088 34.095H36.6327V36.0189H34.7088V34.095ZM32.25 36.4811H34.1739V38.405H32.25V36.4811ZM34.7088 36.4811H36.6327V38.405H34.7088V36.4811Z" fill="#294657"/>
<path d="M22.1307 34.8322L31.9989 17.6391L40.1684 25.5295L46.0504 15.5909C43.7792 13.2329 40.457 11.6187 37.2356 11.0557C23.5947 8.6719 12.6966 22.2682 18.1586 35.0668C22.6046 45.4887 35.6613 48.7218 44.4057 42.2415C45.6679 41.3054 47.4417 41.5048 48.535 42.6334L50.4472 44.6089C41.5315 53.7662 26.3281 53.5785 17.3515 44.1959C9.64648 36.1414 8.88396 23.5 15.4346 14.4811C23.3155 3.63223 39 1.81157 49.2553 10.455C53.6638 14.1691 52.3429 16.6303 49.9169 20.9755C47.2821 25.6984 44.0866 30.0694 41.2922 34.6914L33.3362 27.0803L30.1149 32.6127C29.7216 33.2882 29.158 33.8486 28.4803 34.2381C27.8026 34.6276 27.0346 34.8324 26.253 34.8322H22.1283H22.1307Z" fill="url(#paint0_linear_5_54)"/>
<path d="M49.9213 20.9751C47.2865 25.698 44.0909 30.069 41.2966 34.6934L33.3429 27.0847L30.199 32.4786C29.7812 33.1957 29.1825 33.7906 28.4629 34.2039C27.7432 34.6173 26.9277 34.8346 26.0978 34.8342H22.1304L31.9962 17.6388L40.1681 25.5291L45.9187 15.8134L49.2104 10.4148C49.2245 10.4289 49.2409 10.4383 49.255 10.4523C53.6612 14.1664 52.3426 16.6276 49.9166 20.9728L49.9213 20.9751Z" fill="#294657"/>
<path d="M61.5 8C61.9016 14.7249 61.9741 21.7492 62 28.5C61.9767 35.2566 61.9041 42.2722 61.5 49C61.0959 42.2751 61.0233 35.2537 61 28.5C61.0259 21.7434 61.0984 14.7278 61.5 8Z" fill="#294657"/>
<defs>
<linearGradient id="paint0_linear_5_54" x1="11.0049" y1="28.176" x2="52.1576" y2="28.176" gradientUnits="userSpaceOnUse">
<stop stop-color="#F5E7C6"/>
<stop offset="1" stop-color="#C9B38C"/>
</linearGradient>
</defs>
</svg>
