<?xml version="1.0" encoding="UTF-8"?><svg id="Calque_1" xmlns="http://www.w3.org/2000/svg" viewBox="0 0 257.85 56"><defs><style>.cls-1{fill:#ed6a55;}.cls-2{fill:#292564;}</style></defs><path class="cls-2" d="m23.75,28c0-13.35,9.01-22.03,22.67-22.03,12.14,0,20.57,6.13,20.57,16.03v.51h-7.6v-.51c0-6.13-4.28-9.45-13.16-9.45-10.28,0-15.2,4.79-15.2,15.46s4.85,15.39,14.88,15.39,14.24-2.81,14.24-10.03v-.57h-15.84v-5.24h22.67v21.84h-6.26v-9.26h-.45c-1.79,6.26-7.22,9.9-15.58,9.9-12.58,0-20.95-8.69-20.95-22.03"/><path class="cls-2" d="m85.68,13.09c0-4.3,2.9-7.09,7.3-7.09,3.91,0,6.62,1.97,6.62,5.16v.16h-2.45v-.16c0-1.97-1.38-3.04-4.24-3.04-3.31,0-4.89,1.54-4.89,4.98s1.56,4.96,4.79,4.96,4.59-.91,4.59-3.23v-.19h-5.1v-1.69h7.3v7.03h-2.01v-2.98h-.14c-.58,2.01-2.32,3.19-5.02,3.19-4.05,0-6.74-2.8-6.74-7.09"/><path class="cls-2" d="m101.47,19.98v-10.22h2.04v2.76h.14c.31-1.65,1.42-2.96,3.52-2.96,2.32,0,3.33,1.67,3.33,3.6v1.34h-2.2v-.9c0-1.46-.62-2.14-2.14-2.14-1.75,0-2.47.97-2.47,2.8v5.74h-2.22Z"/><path class="cls-2" d="m120.63,14.88c0-2.18-1.03-3.37-3.52-3.37s-3.5,1.19-3.5,3.37,1.03,3.33,3.5,3.33,3.52-1.17,3.52-3.33m-9.19,0c0-3.19,2.28-5.33,5.68-5.33s5.69,2.14,5.69,5.33-2.28,5.31-5.69,5.31-5.68-2.16-5.68-5.31"/><path class="cls-2" d="m124.39,15.91v-6.15h2.2v5.55c0,1.91.88,2.88,3.04,2.88s3.31-1.15,3.31-3.37v-5.06h2.2v10.22h-2.04v-3.17h-.12c-.33,1.73-1.69,3.37-4.32,3.37-2.88,0-4.28-1.91-4.28-4.28"/><path class="cls-2" d="m142.9,18.17c2.2,0,3.48-.84,3.48-3.29s-1.3-3.29-3.43-3.29c-2.28,0-3.56,1.07-3.56,3.27v.19c0,2.1,1.34,3.13,3.52,3.13m-5.74,5.31v-13.72h2.04v2.84h.18c.41-1.89,1.85-3.04,4.26-3.04,3.17,0,4.96,2.16,4.96,5.33s-1.75,5.31-4.93,5.31c-2.3,0-3.78-1.21-4.2-3.08h-.08v6.37h-2.22Z"/><path class="cls-2" d="m151.82,14.14h6.64v-.04c0-1.89-1.09-2.8-3.27-2.8s-3.25,1.01-3.37,2.84m-2.1.74c0-3.19,2.18-5.33,5.51-5.33s5.32,1.75,5.32,4.85c0,.37-.02.66-.08.97h-8.68c.08,1.97,1.05,3.02,3.41,3.02,2.14,0,3.02-.7,3.02-1.91v-.17h2.22v.19c0,2.18-2.14,3.68-5.18,3.68-3.35,0-5.55-1.89-5.55-5.31"/><path class="cls-2" d="m85.68,37.91c0-7.06,4.76-11.65,11.99-11.65,6.42,0,10.87,3.24,10.87,8.47v.27h-4.02v-.27c0-3.24-2.26-5-6.96-5-5.44,0-8.04,2.53-8.04,8.17s2.57,8.14,7.87,8.14,7.53-1.49,7.53-5.3v-.3h-8.37v-2.77h11.99v11.55h-3.31v-4.9h-.24c-.95,3.31-3.82,5.23-8.24,5.23-6.65,0-11.07-4.59-11.07-11.65"/><path class="cls-2" d="m117.52,46.93c3.81,0,6.38-1.42,6.38-4.73l-6.58.74c-1.89.24-2.8.68-2.8,1.99s.91,1.99,3,1.99m-6.65-1.76c0-2.6,2.09-3.95,5.4-4.32l7.63-.81v-.98c0-2.77-1.21-3.75-4.42-3.75s-4.62,1.01-4.62,3.48v.14h-3.61v-.14c0-3.82,3.17-6.69,8.51-6.69s7.73,2.9,7.73,6.92v10.2h-3.34v-4.19h-.24c-.88,2.84-3.54,4.52-7.36,4.52-3.48,0-5.67-1.62-5.67-4.39"/><path class="cls-2" d="m130.72,49.22v-16.78h3.34v5.06h.2c.44-2.8,2.26-5.4,6.45-5.4,3.82,0,5.88,2.33,6.35,5.54h.2c.44-2.87,2.33-5.54,6.58-5.54s6.55,2.97,6.55,7.02v10.1h-3.61v-9.12c0-3.31-1.32-4.73-4.56-4.73-3.58,0-4.86,1.82-4.86,5.54v8.31h-3.61v-9.12c0-3.31-1.28-4.73-4.52-4.73-3.61,0-4.86,1.82-4.86,5.54v8.31h-3.65Z"/><path class="cls-2" d="m173.09,46.22c3.68,0,5.71-1.35,5.71-5.37s-2.06-5.44-5.64-5.44c-3.78,0-5.84,1.76-5.84,5.34v.27c0,3.51,2.16,5.2,5.77,5.2m-9.42,3.01v-22.62h3.65v10.4h.2c.68-2.84,2.9-4.89,6.92-4.89,5.16,0,8,3.51,8,8.74s-2.87,8.71-8.2,8.71c-3.82,0-6.28-1.82-6.99-5.17h-.24v4.83h-3.34Z"/><path class="cls-2" d="m187.74,39.63h10.9v-.07c0-3.11-1.79-4.59-5.37-4.59s-5.34,1.65-5.54,4.66m-3.44,1.22c0-5.23,3.58-8.74,9.05-8.74s8.74,2.87,8.74,7.97c0,.61-.03,1.08-.13,1.59h-14.25c.13,3.24,1.72,4.96,5.6,4.96,3.51,0,4.96-1.15,4.96-3.14v-.27h3.65v.3c0,3.58-3.51,6.04-8.51,6.04-5.5,0-9.12-3.11-9.12-8.71"/><path class="cls-2" d="m211.98,49.22c-3.61,0-5.84-1.59-5.84-5.67v-8.07h-2.84v-3.04h2.84v-3.68h3.61v3.68h6.08v3.04h-6.08v7.87c0,2.06.94,2.6,3.04,2.6h3.04v3.28h-3.85Z"/><path class="cls-2" d="m225.29,49.22c-3.61,0-5.84-1.59-5.84-5.67v-8.07h-2.84v-3.04h2.84v-3.68h3.61v3.68h6.08v3.04h-6.08v7.87c0,2.06.95,2.6,3.04,2.6h3.04v3.28h-3.85Z"/><path class="cls-2" d="m237.34,46.93c3.82,0,6.38-1.42,6.38-4.73l-6.58.74c-1.89.24-2.8.68-2.8,1.99s.91,1.99,3,1.99m-6.65-1.76c0-2.6,2.09-3.95,5.4-4.32l7.63-.81v-.98c0-2.77-1.21-3.75-4.42-3.75s-4.62,1.01-4.62,3.48v.14h-3.61v-.14c0-3.82,3.17-6.69,8.51-6.69s7.73,2.9,7.73,6.92v10.2h-3.34v-4.19h-.24c-.88,2.84-3.54,4.52-7.36,4.52-3.48,0-5.67-1.62-5.67-4.39"/><rect class="cls-1" x="75.76" y="5.96" width=".75" height="43.38"/><path class="cls-2" d="m21.03,39.17c-2.14-2.51-3.2-6.19-3.2-11.17s1.05-8.6,3.2-11.13v-8.03c-6.57,3.6-10.48,10.37-10.48,19.16s3.94,16.12,10.48,19.59v-8.43Z"/></svg>