<svg width="170" height="102" viewBox="0 0 170 102" fill="none" xmlns="http://www.w3.org/2000/svg">
<path d="M85.5005 40.2041H88.1585V42.8621H85.5005V40.2041ZM88.8975 40.2041H91.5555V42.8621H88.8975V40.2041ZM85.5005 43.5007H88.1585V46.1587H85.5005V43.5007ZM88.8975 43.5007H91.5555V46.1587H88.8975V43.5007Z" fill="#294657"/>
<path d="M71.5194 41.2227L85.153 17.4693L96.4398 28.3703L104.566 14.6395C101.428 11.3818 96.8384 9.15167 92.3879 8.37372C73.5421 5.0804 58.4855 23.8647 66.0316 41.5468C72.1742 55.9454 90.2129 60.4121 102.294 51.4592C104.038 50.1658 106.488 50.4414 107.999 52.0005L110.641 54.7298C98.323 67.3812 77.3184 67.1219 64.9166 54.1593C54.2716 43.0314 53.2182 25.5664 62.2683 13.1063C73.1564 -1.88225 94.8255 -4.39762 108.994 7.54391C115.085 12.6751 113.26 16.0754 109.908 22.0786C106.268 28.6037 101.853 34.6425 97.9924 41.0282L87.0006 30.5129L82.5501 38.1562C82.0068 39.0895 81.2281 39.8638 80.2918 40.4019C79.3556 40.94 78.2945 41.223 77.2147 41.2227H71.5162H71.5194Z" fill="url(#paint0_linear_19_14)"/>
<path d="M109.914 22.0783C106.274 28.6034 101.859 34.6422 97.9985 41.0311L87.01 30.5191L82.6664 37.9712C82.0892 38.9619 81.2621 39.7838 80.2679 40.3548C79.2736 40.9259 78.1469 41.2262 77.0003 41.2256H71.519L85.1494 17.469L96.4394 28.37L104.384 14.9471L108.932 7.48853C108.951 7.50797 108.974 7.52094 108.994 7.54039C115.081 12.6716 113.259 16.0719 109.908 22.0751L109.914 22.0783Z" fill="#294657"/>
<path d="M21.9448 89.1305C20.9761 89.1305 20.0739 88.9731 19.2383 88.6583C18.4149 88.3313 17.6944 87.8772 17.0768 87.2959C16.4713 86.7026 15.999 86.0063 15.66 85.2071C15.3209 84.4078 15.1514 83.5359 15.1514 82.5914C15.1514 81.6469 15.3209 80.775 15.66 79.9757C15.999 79.1765 16.4774 78.4863 17.0949 77.905C17.7125 77.3116 18.4331 76.8575 19.2565 76.5427C20.0799 76.2157 20.9821 76.0522 21.963 76.0522C23.0044 76.0522 23.955 76.2339 24.8148 76.5972C25.6746 76.9484 26.4011 77.4751 26.9945 78.1775L25.4687 79.6124C25.0085 79.116 24.4939 78.7466 23.9247 78.5044C23.3556 78.2501 22.738 78.123 22.072 78.123C21.4059 78.123 20.7944 78.232 20.2374 78.4499C19.6924 78.6679 19.2141 78.9767 18.8024 79.3763C18.4028 79.7759 18.0879 80.2482 17.8578 80.7931C17.6399 81.3381 17.5309 81.9375 17.5309 82.5914C17.5309 83.2453 17.6399 83.8447 17.8578 84.3897C18.0879 84.9346 18.4028 85.4069 18.8024 85.8065C19.2141 86.2061 19.6924 86.5149 20.2374 86.7329C20.7944 86.9508 21.4059 87.0598 22.072 87.0598C22.738 87.0598 23.3556 86.9387 23.9247 86.6965C24.4939 86.4422 25.0085 86.0608 25.4687 85.5522L26.9945 87.0053C26.4011 87.6956 25.6746 88.2223 24.8148 88.5856C23.955 88.9489 22.9983 89.1305 21.9448 89.1305Z" fill="#294657"/>
<path d="M33.026 89.0761C32.033 89.0761 31.1491 88.8641 30.374 88.4403C29.599 88.0044 28.9875 87.411 28.5394 86.6602C28.0914 85.9094 27.8674 85.0557 27.8674 84.099C27.8674 83.1303 28.0914 82.2765 28.5394 81.5379C28.9875 80.7871 29.599 80.1998 30.374 79.7759C31.1491 79.3521 32.033 79.1402 33.026 79.1402C34.019 79.1402 34.8848 79.3521 35.6235 79.7759C36.3622 80.1998 36.9374 80.7871 37.3491 81.5379C37.7609 82.2765 37.9667 83.1303 37.9667 84.099C37.9667 85.0557 37.7609 85.9094 37.3491 86.6602C36.9374 87.411 36.3622 88.0044 35.6235 88.4403C34.8848 88.8641 34.019 89.0761 33.026 89.0761ZM33.026 87.1325C33.5831 87.1325 34.0796 87.0114 34.5155 86.7692C34.9514 86.527 35.2905 86.1758 35.5327 85.7157C35.787 85.2555 35.9142 84.7166 35.9142 84.099C35.9142 83.4693 35.787 82.9305 35.5327 82.4824C35.2905 82.0222 34.9514 81.6711 34.5155 81.4289C34.0796 81.1867 33.5831 81.0656 33.026 81.0656C32.4811 81.0656 31.9907 81.1867 31.5547 81.4289C31.1309 81.6711 30.7918 82.0222 30.5375 82.4824C30.2832 82.9305 30.1561 83.4693 30.1561 84.099C30.1561 84.7166 30.2832 85.2555 30.5375 85.7157C30.7918 86.1758 31.1309 86.527 31.5547 86.7692C31.9907 87.0114 32.4811 87.1325 33.026 87.1325ZM41.2908 89.0761C40.213 89.0761 39.2806 88.8641 38.4935 88.4403C37.7185 88.0044 37.1191 87.411 36.6952 86.6602C36.2835 85.9094 36.0776 85.0557 36.0776 84.099C36.0776 83.1303 36.2835 82.2765 36.6952 81.5379C37.1069 80.7871 37.6761 80.1998 38.4027 79.7759C39.1292 79.3521 39.9708 79.1402 40.9275 79.1402C41.8842 79.1402 42.7318 79.346 43.4705 79.7578C44.2092 80.1695 44.7904 80.7507 45.2143 81.5015C45.6381 82.2523 45.85 83.1363 45.85 84.1535C45.85 84.2504 45.844 84.3594 45.8319 84.4805C45.8319 84.6016 45.8258 84.7166 45.8137 84.8256H37.7851V83.318H44.4877L43.7066 83.7902C43.7188 83.2332 43.6037 82.7428 43.3615 82.3189C43.1314 81.8951 42.8045 81.5621 42.3806 81.3199C41.9689 81.0777 41.4845 80.9566 40.9275 80.9566C40.3826 80.9566 39.8982 81.0777 39.4744 81.3199C39.0626 81.5621 38.7357 81.9012 38.4935 82.3371C38.2513 82.7609 38.1302 83.2635 38.1302 83.8447V84.208C38.1302 84.7893 38.2634 85.3039 38.5298 85.752C38.7962 86.2 39.1716 86.5452 39.656 86.7873C40.1404 87.0295 40.7035 87.1506 41.3453 87.1506C41.8781 87.1506 42.3625 87.0659 42.7984 86.8963C43.2344 86.7268 43.6219 86.4604 43.9609 86.0971L45.1961 87.4958C44.7481 88.0044 44.191 88.3979 43.525 88.6764C42.859 88.9428 42.1142 89.0761 41.2908 89.0761Z" fill="#294657"/>
<path d="M52.1245 89.0761C51.3011 89.0761 50.5745 88.9247 49.9448 88.6219C49.3151 88.3071 48.8247 87.8348 48.4735 87.2051C48.1223 86.5633 47.9467 85.758 47.9467 84.7893V79.2492H50.2173V84.4805C50.2173 85.3524 50.411 86.0063 50.7985 86.4422C51.1981 86.8661 51.7612 87.078 52.4878 87.078C53.0206 87.078 53.4808 86.969 53.8683 86.751C54.2679 86.533 54.5767 86.2061 54.7947 85.7701C55.0247 85.3342 55.1398 84.7953 55.1398 84.1535V79.2492H57.4103V88.9489H55.2488V86.3332L55.6302 87.1325C55.3033 87.7622 54.8249 88.2465 54.1952 88.5856C53.5656 88.9126 52.8753 89.0761 52.1245 89.0761Z" fill="#294657"/>
<path d="M60.3832 88.9489V79.2492H62.5447V81.9193L62.2904 81.1383C62.581 80.4843 63.0352 79.9878 63.6527 79.6488C64.2824 79.3097 65.0635 79.1402 65.9959 79.1402V81.3017C65.8991 81.2775 65.8082 81.2654 65.7235 81.2654C65.6387 81.2533 65.5539 81.2472 65.4692 81.2472C64.6094 81.2472 63.9252 81.5015 63.4166 82.0101C62.908 82.5066 62.6537 83.2514 62.6537 84.2443V88.9489H60.3832Z" fill="#294657"/>
<path d="M73.2487 88.9489V76.2339H75.1923L83.1665 86.0244H82.2038V76.2339H84.5469V88.9489H82.6034L74.6292 79.1583H75.5919V88.9489H73.2487Z" fill="#294657"/>
<path d="M93.7121 88.9489V86.9872L93.585 86.5694V83.1363C93.585 82.4703 93.3852 81.9556 92.9855 81.5924C92.5859 81.217 91.9804 81.0293 91.1691 81.0293C90.6242 81.0293 90.0853 81.114 89.5525 81.2836C89.0318 81.4531 88.5898 81.6892 88.2265 81.992L87.3364 80.339C87.8572 79.9394 88.4747 79.6427 89.1892 79.449C89.9158 79.2431 90.6666 79.1402 91.4416 79.1402C92.8463 79.1402 93.9301 79.4792 94.693 80.1574C95.468 80.8234 95.8555 81.8588 95.8555 83.2635V88.9489H93.7121ZM90.6605 89.0761C89.9339 89.0761 89.2982 88.955 88.7533 88.7128C88.2083 88.4585 87.7845 88.1133 87.4818 87.6774C87.1911 87.2293 87.0458 86.7268 87.0458 86.1698C87.0458 85.6248 87.173 85.1344 87.4273 84.6985C87.6937 84.2625 88.1236 83.9174 88.7169 83.6631C89.3103 83.4088 90.0974 83.2816 91.0783 83.2816H93.8937V84.7893H91.2418C90.4667 84.7893 89.946 84.9164 89.6796 85.1707C89.4132 85.4129 89.28 85.7157 89.28 86.0789C89.28 86.4907 89.4435 86.8176 89.7705 87.0598C90.0974 87.302 90.5515 87.4231 91.1328 87.4231C91.6898 87.4231 92.1863 87.2959 92.6223 87.0416C93.0703 86.7873 93.3912 86.412 93.585 85.9155L93.9664 87.2778C93.7484 87.8469 93.3549 88.2889 92.7857 88.6038C92.2287 88.9186 91.5203 89.0761 90.6605 89.0761Z" fill="#294657"/>
<path d="M104.273 79.1402C105.048 79.1402 105.738 79.2915 106.344 79.5943C106.962 79.897 107.446 80.3632 107.797 80.9929C108.148 81.6105 108.324 82.4098 108.324 83.3906V88.9489H106.053V83.6813C106.053 82.8215 105.847 82.1797 105.436 81.7558C105.036 81.332 104.473 81.1201 103.746 81.1201C103.214 81.1201 102.741 81.2291 102.33 81.447C101.918 81.665 101.597 81.992 101.367 82.4279C101.149 82.8517 101.04 83.3906 101.04 84.0445V88.9489H98.7694V79.2492H100.931V81.8648L100.55 81.0656C100.889 80.448 101.379 79.9757 102.021 79.6488C102.675 79.3097 103.426 79.1402 104.273 79.1402Z" fill="#294657"/>
<path d="M114.855 89.0761C113.79 89.0761 112.966 88.8036 112.385 88.2587C111.804 87.7016 111.513 86.8842 111.513 85.8065V77.1058H113.784V85.752C113.784 86.2121 113.899 86.5694 114.129 86.8237C114.371 87.078 114.704 87.2051 115.128 87.2051C115.636 87.2051 116.06 87.0719 116.399 86.8055L117.035 88.4221C116.769 88.6401 116.442 88.8036 116.054 88.9126C115.667 89.0216 115.267 89.0761 114.855 89.0761ZM109.915 81.1383V79.3218H116.381V81.1383H109.915Z" fill="#294657"/>
<path d="M123.143 89.0761C122.065 89.0761 121.12 88.8641 120.309 88.4403C119.51 88.0044 118.886 87.411 118.438 86.6602C118.002 85.9094 117.784 85.0557 117.784 84.099C117.784 83.1303 117.996 82.2765 118.42 81.5379C118.856 80.7871 119.449 80.1998 120.2 79.7759C120.963 79.3521 121.829 79.1402 122.798 79.1402C123.742 79.1402 124.584 79.346 125.322 79.7578C126.061 80.1695 126.642 80.7507 127.066 81.5015C127.49 82.2523 127.702 83.1363 127.702 84.1535C127.702 84.2504 127.696 84.3594 127.684 84.4805C127.684 84.6016 127.678 84.7166 127.666 84.8256H119.582V83.318H126.467L125.577 83.7902C125.589 83.2332 125.474 82.7428 125.232 82.3189C124.989 81.8951 124.656 81.5621 124.233 81.3199C123.821 81.0777 123.342 80.9566 122.798 80.9566C122.241 80.9566 121.75 81.0777 121.326 81.3199C120.915 81.5621 120.588 81.9012 120.345 82.3371C120.115 82.7609 120 83.2635 120 83.8447V84.208C120 84.7893 120.133 85.3039 120.4 85.752C120.666 86.2 121.042 86.5452 121.526 86.7873C122.01 87.0295 122.567 87.1506 123.197 87.1506C123.742 87.1506 124.233 87.0659 124.668 86.8963C125.104 86.7268 125.492 86.4604 125.831 86.0971L127.048 87.4958C126.612 88.0044 126.061 88.3979 125.395 88.6764C124.741 88.9428 123.99 89.0761 123.143 89.0761Z" fill="#294657"/>
<path d="M129.883 88.9489V79.2492H132.044V81.9193L131.79 81.1383C132.081 80.4843 132.535 79.9878 133.152 79.6488C133.782 79.3097 134.563 79.1402 135.496 79.1402V81.3017C135.399 81.2775 135.308 81.2654 135.223 81.2654C135.138 81.2533 135.054 81.2472 134.969 81.2472C134.109 81.2472 133.425 81.5015 132.916 82.0101C132.408 82.5066 132.153 83.2514 132.153 84.2443V88.9489H129.883Z" fill="#294657"/>
<path d="M137.422 88.9489V79.2492H139.583V81.9193L139.329 81.1383C139.62 80.4843 140.074 79.9878 140.691 79.6488C141.321 79.3097 142.102 79.1402 143.035 79.1402V81.3017C142.938 81.2775 142.847 81.2654 142.762 81.2654C142.677 81.2533 142.593 81.2472 142.508 81.2472C141.648 81.2472 140.964 81.5015 140.455 82.0101C139.947 82.5066 139.692 83.2514 139.692 84.2443V88.9489H137.422Z" fill="#294657"/>
<path d="M149.431 89.0761C148.353 89.0761 147.409 88.8641 146.598 88.4403C145.798 88.0044 145.175 87.411 144.727 86.6602C144.291 85.9094 144.073 85.0557 144.073 84.099C144.073 83.1303 144.285 82.2765 144.709 81.5379C145.144 80.7871 145.738 80.1998 146.489 79.7759C147.252 79.3521 148.117 79.1402 149.086 79.1402C150.031 79.1402 150.872 79.346 151.611 79.7578C152.35 80.1695 152.931 80.7507 153.355 81.5015C153.779 82.2523 153.99 83.1363 153.99 84.1535C153.99 84.2504 153.984 84.3594 153.972 84.4805C153.972 84.6016 153.966 84.7166 153.954 84.8256H145.871V83.318H152.755L151.865 83.7902C151.877 83.2332 151.762 82.7428 151.52 82.3189C151.278 81.8951 150.945 81.5621 150.521 81.3199C150.109 81.0777 149.631 80.9566 149.086 80.9566C148.529 80.9566 148.039 81.0777 147.615 81.3199C147.203 81.5621 146.876 81.9012 146.634 82.3371C146.404 82.7609 146.289 83.2635 146.289 83.8447V84.208C146.289 84.7893 146.422 85.3039 146.688 85.752C146.955 86.2 147.33 86.5452 147.815 86.7873C148.299 87.0295 148.856 87.1506 149.486 87.1506C150.031 87.1506 150.521 87.0659 150.957 86.8963C151.393 86.7268 151.78 86.4604 152.12 86.0971L153.337 87.4958C152.901 88.0044 152.35 88.3979 151.684 88.6764C151.03 88.9428 150.279 89.0761 149.431 89.0761Z" fill="#294657"/>
<path d="M30.4028 98.723V98.3286H32.2152C32.4781 98.3286 32.7103 98.2782 32.9116 98.1776C33.113 98.0713 33.2725 97.923 33.3899 97.7328C33.5074 97.5371 33.5661 97.3077 33.5661 97.0448C33.5661 96.7819 33.5074 96.5553 33.3899 96.3651C33.2725 96.1693 33.113 96.0211 32.9116 95.9204C32.7103 95.8141 32.4781 95.761 32.2152 95.761H30.4028V95.3666H32.2656C32.6012 95.3666 32.8977 95.4365 33.155 95.5764C33.4179 95.7107 33.6249 95.9036 33.7759 96.1554C33.9325 96.4071 34.0108 96.7036 34.0108 97.0448C34.0108 97.386 33.9325 97.6825 33.7759 97.9342C33.6249 98.1804 33.4179 98.3733 33.155 98.5132C32.8977 98.653 32.6012 98.723 32.2656 98.723H30.4028ZM30.1343 101.089V95.3666H30.579V101.089H30.1343Z" fill="#294657"/>
<path d="M34.2463 101.089L36.579 95.3666H36.9314L39.2556 101.089H38.769L36.6629 95.8197H36.8391L34.7162 101.089H34.2463ZM35.2616 99.4026V99.0083H38.2404V99.4026H35.2616Z" fill="#294657"/>
<path d="M41.1374 101.089V95.5261H41.5737V101.089H41.1374ZM39.0397 95.7694V95.3666H43.6715V95.7694H39.0397Z" fill="#294657"/>
<path d="M45.0786 98.4628V98.0853H46.849C47.2686 98.0853 47.5902 97.979 47.814 97.7664C48.0377 97.5538 48.1496 97.2713 48.1496 96.9189C48.1496 96.5721 48.0377 96.2924 47.814 96.0798C47.5958 95.8673 47.2742 95.761 46.849 95.761H45.0786V95.3666H46.8322C47.2014 95.3666 47.5175 95.4338 47.7804 95.568C48.0433 95.6967 48.2447 95.8785 48.3846 96.1134C48.5244 96.3428 48.5943 96.6113 48.5943 96.9189C48.5943 97.2266 48.5244 97.4979 48.3846 97.7328C48.2447 97.9622 48.0433 98.1412 47.7804 98.2699C47.5175 98.3985 47.2014 98.4628 46.8322 98.4628H45.0786ZM44.8101 101.089V95.3666H45.2548V101.089H44.8101ZM48.4349 101.089L46.2197 98.3622L46.6644 98.2447L49.0139 101.089H48.4349Z" fill="#294657"/>
<path d="M50.0216 101.089V95.3666H50.4663V101.089H50.0216Z" fill="#294657"/>
<path d="M52.0291 101.089V95.3666H52.348L54.8652 99.4949H54.6219L57.1392 95.3666H57.458V101.089H57.0133V96.1302L57.1224 96.1554L54.9072 99.7886H54.5883L52.3732 96.1554L52.4738 96.1302V101.089H52.0291Z" fill="#294657"/>
<path d="M61.578 101.173C61.1752 101.173 60.8004 101.098 60.4536 100.947C60.1124 100.796 59.8131 100.586 59.5558 100.317C59.2985 100.043 59.0971 99.7271 58.9516 99.3691C58.8118 99.011 58.7419 98.6279 58.7419 98.2195C58.7419 97.8056 58.8118 97.4224 58.9516 97.07C59.0915 96.712 59.2901 96.3987 59.5474 96.1302C59.8047 95.8617 60.104 95.6547 60.4452 95.5093C60.7864 95.3582 61.1584 95.2827 61.5612 95.2827C61.964 95.2827 62.3359 95.3582 62.6772 95.5093C63.024 95.6547 63.3233 95.8617 63.575 96.1302C63.8323 96.3987 64.0337 96.712 64.1791 97.07C64.3246 97.428 64.3973 97.814 64.3973 98.2279C64.3973 98.6363 64.3246 99.0194 64.1791 99.3774C64.0393 99.7355 63.8407 100.049 63.5834 100.317C63.3261 100.586 63.0268 100.796 62.6856 100.947C62.3499 101.098 61.9807 101.173 61.578 101.173ZM61.5612 100.745C62.0199 100.745 62.4254 100.636 62.7779 100.418C63.1359 100.194 63.4184 99.8921 63.6253 99.5117C63.8323 99.1313 63.9358 98.7006 63.9358 98.2195C63.9358 97.8615 63.8743 97.5315 63.7512 97.2294C63.6337 96.9217 63.4687 96.656 63.2561 96.4323C63.0436 96.2029 62.7918 96.0267 62.501 95.9036C62.2157 95.775 61.9024 95.7106 61.5612 95.7106C61.1081 95.7106 60.7025 95.8197 60.3445 96.0379C59.9921 96.2561 59.7124 96.5553 59.5054 96.9357C59.3041 97.3105 59.2034 97.7384 59.2034 98.2195C59.2034 98.5775 59.2621 98.9104 59.3796 99.218C59.497 99.5257 59.6621 99.7942 59.8746 100.024C60.0872 100.253 60.3361 100.432 60.6214 100.561C60.9123 100.684 61.2256 100.745 61.5612 100.745Z" fill="#294657"/>
<path d="M66.8508 101.089V95.5261H67.2871V101.089H66.8508ZM64.7531 95.7694V95.3666H69.3848V95.7694H64.7531Z" fill="#294657"/>
<path d="M70.5234 101.089V95.3666H70.9681V101.089H70.5234Z" fill="#294657"/>
<path d="M72.531 101.089V95.3666H72.8498L72.9757 95.9036V101.089H72.531ZM76.4914 101.089L72.7827 95.954L72.8498 95.3666L76.567 100.493L76.4914 101.089ZM76.4914 101.089L76.3656 100.569V95.3666H76.8103V101.089H76.4914Z" fill="#294657"/>
<path d="M78.3734 101.089V95.3666H78.8181V101.089H78.3734ZM78.6587 101.089V100.686H82.099V101.089H78.6587ZM78.6587 98.3454V97.9594H81.8388V98.3454H78.6587ZM78.6587 95.7694V95.3666H82.057V95.7694H78.6587Z" fill="#294657"/>
<path d="M89.0677 101.089L86.282 98.2195C86.0414 97.979 85.8652 97.744 85.7534 97.5147C85.6415 97.2853 85.5855 97.042 85.5855 96.7847C85.5855 96.4882 85.6499 96.2281 85.7785 96.0043C85.9128 95.7806 86.0974 95.6044 86.3323 95.4757C86.5673 95.347 86.8358 95.2827 87.1379 95.2827C87.3504 95.2827 87.5434 95.3135 87.7168 95.375C87.8958 95.4365 88.0553 95.5233 88.1951 95.6351C88.3349 95.7414 88.4524 95.8729 88.5475 96.0295L88.2371 96.3232C88.1028 96.1218 87.9462 95.968 87.7672 95.8617C87.5882 95.7498 87.3812 95.6939 87.1462 95.6939C86.8106 95.6939 86.5393 95.7946 86.3323 95.9959C86.1254 96.1973 86.0219 96.4658 86.0219 96.8015C86.0219 97.0196 86.0694 97.2182 86.1645 97.3972C86.2596 97.5762 86.419 97.7804 86.6428 98.0097L89.6215 101.089H89.0677ZM86.819 101.173C86.4666 101.173 86.1533 101.1 85.8792 100.955C85.6107 100.809 85.3981 100.611 85.2415 100.359C85.0905 100.107 85.015 99.8166 85.015 99.4865C85.015 99.1341 85.1101 98.8097 85.3003 98.5132C85.4905 98.2111 85.7506 97.9818 86.0806 97.8251L86.3072 98.102C86.0498 98.2251 85.8401 98.4125 85.6778 98.6642C85.5212 98.9104 85.4429 99.1845 85.4429 99.4865C85.4429 99.7383 85.5016 99.9592 85.6191 100.149C85.7422 100.34 85.9072 100.491 86.1142 100.603C86.3267 100.709 86.5673 100.762 86.8358 100.762C87.1434 100.762 87.4203 100.692 87.6665 100.552C87.9126 100.412 88.1 100.225 88.2287 99.99L88.5139 100.3C88.4077 100.474 88.265 100.628 88.086 100.762C87.9126 100.891 87.7168 100.991 87.4987 101.064C87.2861 101.137 87.0595 101.173 86.819 101.173Z" fill="#294657"/>
<path d="M92.0823 101.089V95.3666H92.4011L94.9184 99.4949H94.6751L97.1923 95.3666H97.5112V101.089H97.0664V96.1302L97.1755 96.1554L94.9603 99.7886H94.6415L92.4263 96.1554L92.527 96.1302V101.089H92.0823Z" fill="#294657"/>
<path d="M101.631 101.173C101.228 101.173 100.854 101.098 100.507 100.947C100.166 100.796 99.8663 100.586 99.6089 100.317C99.3516 100.043 99.1502 99.7271 99.0048 99.3691C98.865 99.011 98.795 98.6279 98.795 98.2195C98.795 97.8056 98.865 97.4224 99.0048 97.07C99.1446 96.712 99.3432 96.3987 99.6005 96.1302C99.8579 95.8617 100.157 95.6547 100.498 95.5093C100.84 95.3582 101.212 95.2827 101.614 95.2827C102.017 95.2827 102.389 95.3582 102.73 95.5093C103.077 95.6547 103.376 95.8617 103.628 96.1302C103.885 96.3987 104.087 96.712 104.232 97.07C104.378 97.428 104.45 97.814 104.45 98.2279C104.45 98.6363 104.378 99.0194 104.232 99.3774C104.092 99.7355 103.894 100.049 103.637 100.317C103.379 100.586 103.08 100.796 102.739 100.947C102.403 101.098 102.034 101.173 101.631 101.173ZM101.614 100.745C102.073 100.745 102.479 100.636 102.831 100.418C103.189 100.194 103.472 99.8921 103.678 99.5117C103.885 99.1313 103.989 98.7006 103.989 98.2195C103.989 97.8615 103.927 97.5315 103.804 97.2294C103.687 96.9217 103.522 96.656 103.309 96.4323C103.097 96.2029 102.845 96.0267 102.554 95.9036C102.269 95.775 101.956 95.7106 101.614 95.7106C101.161 95.7106 100.756 95.8197 100.398 96.0379C100.045 96.2561 99.7656 96.5553 99.5586 96.9357C99.3572 97.3105 99.2565 97.7384 99.2565 98.2195C99.2565 98.5775 99.3153 98.9104 99.4327 99.218C99.5502 99.5257 99.7152 99.7942 99.9278 100.024C100.14 100.253 100.389 100.432 100.675 100.561C100.965 100.684 101.279 100.745 101.614 100.745Z" fill="#294657"/>
<path d="M105.961 101.089V100.678H107.739C108.22 100.678 108.643 100.575 109.006 100.368C109.376 100.155 109.664 99.8641 109.871 99.4949C110.078 99.1257 110.181 98.7006 110.181 98.2195C110.181 97.744 110.078 97.3217 109.871 96.9525C109.664 96.5833 109.376 96.2952 109.006 96.0882C108.637 95.8813 108.215 95.7778 107.739 95.7778H105.986V95.3666H107.748C108.167 95.3666 108.553 95.4393 108.906 95.5848C109.258 95.7246 109.563 95.9232 109.82 96.1805C110.083 96.4323 110.285 96.7343 110.424 97.0867C110.57 97.4336 110.643 97.814 110.643 98.2279C110.643 98.6363 110.57 99.0166 110.424 99.3691C110.285 99.7159 110.086 100.018 109.829 100.275C109.571 100.533 109.267 100.734 108.914 100.879C108.562 101.019 108.179 101.089 107.765 101.089H105.961ZM105.726 101.089V95.3666H106.17V101.089H105.726Z" fill="#294657"/>
<path d="M111.929 101.089V95.3666H112.373V101.089H111.929ZM112.214 101.089V100.686H115.654V101.089H112.214ZM112.214 98.3454V97.9594H115.394V98.3454H112.214ZM112.214 95.7694V95.3666H115.612V95.7694H112.214Z" fill="#294657"/>
<path d="M117.138 98.4628V98.0853H118.909C119.328 98.0853 119.65 97.979 119.874 97.7664C120.097 97.5538 120.209 97.2713 120.209 96.9189C120.209 96.5721 120.097 96.2924 119.874 96.0798C119.655 95.8673 119.334 95.761 118.909 95.761H117.138V95.3666H118.892C119.261 95.3666 119.577 95.4338 119.84 95.568C120.103 95.6967 120.304 95.8785 120.444 96.1134C120.584 96.3428 120.654 96.6113 120.654 96.9189C120.654 97.2266 120.584 97.4979 120.444 97.7328C120.304 97.9622 120.103 98.1412 119.84 98.2699C119.577 98.3985 119.261 98.4628 118.892 98.4628H117.138ZM116.87 101.089V95.3666H117.314V101.089H116.87ZM120.495 101.089L118.279 98.3622L118.724 98.2447L121.073 101.089H120.495Z" fill="#294657"/>
<path d="M122.081 101.089V95.3666H122.4L122.526 95.9036V101.089H122.081ZM126.042 101.089L122.333 95.954L122.4 95.3666L126.117 100.493L126.042 101.089ZM126.042 101.089L125.916 100.569V95.3666H126.361V101.089H126.042Z" fill="#294657"/>
<path d="M127.924 101.089V95.3666H128.368V101.089H127.924Z" fill="#294657"/>
<path d="M131.609 101.089V95.5261H132.046V101.089H131.609ZM129.512 95.7694V95.3666H134.143V95.7694H129.512Z" fill="#294657"/>
<path d="M135.282 101.089V95.3666H135.727V101.089H135.282ZM135.567 101.089V100.686H139.008V101.089H135.567ZM135.567 98.3454V97.9594H138.747V98.3454H135.567ZM135.567 95.7694V95.3666H138.966V95.7694H135.567ZM136.599 94.7373L136.415 94.5527L137.548 93.2354L137.892 93.5878L136.599 94.7373Z" fill="#294657"/>
<defs>
<linearGradient id="paint0_linear_19_14" x1="56.1484" y1="32.0266" x2="113.004" y2="32.0266" gradientUnits="userSpaceOnUse">
<stop stop-color="#F5E7C6"/>
<stop offset="1" stop-color="#C9B38C"/>
</linearGradient>
</defs>
</svg>
