<?xml version="1.0" encoding="UTF-8"?>
<svg id="Calque_1" data-name="Calque 1" xmlns="http://www.w3.org/2000/svg" viewBox="0 0 58.3 54.45">
  <defs>
    <style>
      .cls-1 {
        fill: #1d1d1b;
      }
    </style>
  </defs>
  <rect class="cls-1" x="10.89" y="40.18" width="19.1" height=".76"/>
  <polygon class="cls-1" points="15.01 40.57 14.25 40.57 14.25 8.83 35.36 8.83 35.36 27.48 34.6 27.48 34.6 9.59 15.01 9.59 15.01 40.57"/>
  <polygon class="cls-1" points="29.45 40.36 28.68 40.36 28.68 32.12 21.24 32.12 21.24 40.36 20.48 40.36 20.48 31.36 29.45 31.36 29.45 40.36"/>
  <rect class="cls-1" x="24.84" y="31.74" width=".76" height="8.62"/>
  <path class="cls-1" d="M21.45,16.34h-4.4v-4.4h4.4v4.4ZM17.82,15.58h2.87v-2.87h-2.87v2.87Z"/>
  <path class="cls-1" d="M27.01,16.34h-4.4v-4.4h4.4v4.4ZM23.38,15.58h2.87v-2.87h-2.87v2.87Z"/>
  <path class="cls-1" d="M32.57,16.34h-4.4v-4.4h4.4v4.4ZM28.94,15.58h2.87v-2.87h-2.87v2.87Z"/>
  <path class="cls-1" d="M21.45,22.21h-4.4v-4.4h4.4v4.4ZM17.82,21.44h2.87v-2.87h-2.87v2.87Z"/>
  <path class="cls-1" d="M27.01,22.21h-4.4v-4.4h4.4v4.4ZM23.38,21.44h2.87v-2.87h-2.87v2.87Z"/>
  <path class="cls-1" d="M32.57,22.21h-4.4v-4.4h4.4v4.4ZM28.94,21.44h2.87v-2.87h-2.87v2.87Z"/>
  <path class="cls-1" d="M21.45,28.07h-4.4v-4.4h4.4v4.4ZM17.82,27.31h2.87v-2.87h-2.87v2.87Z"/>
  <path class="cls-1" d="M27.01,28.07h-4.4v-4.4h4.4v4.4ZM23.38,27.31h2.87v-2.87h-2.87v2.87Z"/>
  <path class="cls-1" d="M32.57,28.07h-4.4v-4.4h4.4v4.4ZM28.94,27.31h2.87v-2.87h-2.87v2.87Z"/>
  <path class="cls-1" d="M47.41,45.62h-16.44v-16.55h16.44v16.55ZM31.73,44.86h14.92v-15.02h-14.92v15.02Z"/>
  <path class="cls-1" d="M47.41,45.62h-3.67v-3.98h3.67v3.98ZM44.5,44.86h2.14v-2.46h-2.14v2.46Z"/>
  <rect class="cls-1" x="34.19" y="29.35" width=".76" height="2.39"/>
  <rect class="cls-1" x="36.47" y="29.35" width=".76" height="2.39"/>
  <rect class="cls-1" x="38.75" y="29.35" width=".76" height="2.39"/>
  <rect class="cls-1" x="41.04" y="29.35" width=".76" height="2.39"/>
  <rect class="cls-1" x="43.32" y="29.35" width=".76" height="2.39"/>
  <rect class="cls-1" x="44.59" y="32.03" width="2.39" height=".76"/>
  <rect class="cls-1" x="44.59" y="34.32" width="2.39" height=".76"/>
  <rect class="cls-1" x="44.59" y="36.6" width="2.39" height=".76"/>
  <rect class="cls-1" x="44.59" y="38.89" width="2.39" height=".76"/>
</svg>