<?xml version="1.0" encoding="UTF-8"?>
<svg id="Calque_1" data-name="Calque 1" xmlns="http://www.w3.org/2000/svg" viewBox="0 0 73.01 60.75">
  <defs>
    <style>
      .cls-1 {
        fill: #616160;
      }
    </style>
  </defs>
  <g id="Lm9aef">
    <g>
      <path class="cls-1" d="M44.45,31.28h2.22c.43-.46.83-.96,1.23-1.45,1.18-1.43,2.88-4.25,4.71-4.67,2.35-.53,4.74.51,5.09,3.05v12.33c-.25,2.09-1.93,3.76-4.05,3.92h-5.95s-2.55,5.88-2.55,5.88c-.59.61-1.61.22-1.52-.67.92-2.01,1.64-4.28,2.63-6.25.23-.45.27-.61.82-.66,1.97-.18,4.22.15,6.21,0,1.56-.12,2.6-1.15,2.71-2.71.28-3.76-.2-7.89-.02-11.69-.13-.74-.72-1.45-1.5-1.53-1.28-.14-1.9-.02-2.75.92s-1.72,2.23-2.57,3.28c-.27.33-1.34,1.73-1.59,1.86-.13.07-.2.07-.34.08-1.42.13-3.21-.19-4.58,0-.27.04-.82.39-.82.66v1.16h7.51c.81-.94,1.48-2.15,2.29-3.06.22-.25.38-.45.74-.47.82-.03,1.13.7.74,1.38-.62,1.09-1.78,2.17-2.44,3.27-.15,1.06.1,2.31-.03,3.35-.03.28-.25.66-.55.72l-3.84.03c-.83.15-1.28.53-1.59,1.3-1.07,2.66-1.72,5.69-2.76,8.37-.12.3-.2.67-.51.82-.64.32-1.3-.09-1.3-.81l3.03-9.16c.28-.97,1.77-2.24,2.77-2.24h2.96s.11-.1.11-.11v-1.62s-.1-.11-.11-.11h-24.6s-.11.1-.11.11v1.62s.1.11.11.11h2.89c1.07,0,2.52,1.22,2.84,2.24l3.05,9.16c-.01.7-.68,1.13-1.32.82-.34-.17-.48-.74-.6-1.09-.94-2.62-1.65-5.56-2.68-8.11-.88-2.19-3.6-1-5.37-1.32-.32-.06-.57-.43-.6-.74-.13-1.04.12-2.29-.03-3.35-.66-1.1-1.82-2.18-2.44-3.27-.38-.68-.08-1.41.74-1.38.36.01.52.22.74.47.81.91,1.49,2.12,2.29,3.06h7.51v-1.16c0-.25-.55-.63-.82-.66-1.37-.19-3.16.13-4.58,0-.14-.01-.21-.01-.34-.08-.23-.12-1.08-1.23-1.31-1.51-.95-1.15-1.87-2.55-2.86-3.63-.85-.94-1.47-1.06-2.75-.92-.82.09-1.43.88-1.51,1.67.21,3.77-.31,7.89-.01,11.62.07.94.6,1.86,1.44,2.3,1.49.79,5.67.11,7.56.34.47.06.57.29.75.66.98,1.95,1.69,4.2,2.62,6.19.15.99-1.15,1.44-1.62.55l-2.44-5.7h-5.95c-2.15-.17-3.84-1.86-4.05-3.99.21-3.96-.28-8.2,0-12.13.19-2.73,3.1-3.9,5.47-3.06,1.59.56,3.24,3.22,4.34,4.55.39.47.78.96,1.2,1.41,1.37.15,2.84-.07,4.2.03,1.17.09,2.43,1.21,2.43,2.43v1.09h7.05v-1.09c0-.2.21-.82.31-1.02.43-.84,1.41-1.46,2.36-1.41v-5.81c-.29-1.63-1.5-2.82-3.14-3.07-2.87.36-7.69-1.25-9.02,2.26-.53,1.39-.02,2.78-.26,4.11-.16.89-1.55.96-1.68-.05s-.06-3.33.19-4.25c1.42-5.05,7.11-3.54,11.04-3.74,2.02.1,4.56,2.52,4.56,4.54v6.03Z"/>
      <path class="cls-1" d="M19.27,14.53c6.21-.64,6.51,8.75.54,8.79-5.5.04-5.94-8.24-.54-8.79ZM19.19,16.29c-2.79.43-2.74,4.98.27,5.27,3.98.38,3.98-5.93-.27-5.27Z"/>
      <path class="cls-1" d="M52.75,14.53c5.83-.66,6.77,7.93,1.24,8.71-5.96.84-6.87-8.07-1.24-8.71ZM52.75,16.29c-.79.11-1.59.85-1.89,1.57-.95,2.27,1.45,4.54,3.65,3.43,2.68-1.34,1.53-5.47-1.76-5Z"/>
      <path class="cls-1" d="M36.47,10.08c5.71-.11,5.94,8.59.26,8.8s-6.08-8.68-.26-8.8ZM36.52,11.8c-3.54.03-3.4,5.45.07,5.39,3.47-.05,3.49-5.43-.07-5.39Z"/>
      <rect class="cls-1" x="35.7" y="38.33" width="1.69" height="12.34"/>
      <rect class="cls-1" x="35.7" y="24.23" width="1.69" height="1.69"/>
    </g>
  </g>
</svg>